<svg xmlns="http://www.w3.org/2000/svg" version="1.0" width="300.000000pt" height="249.000000pt" viewBox="0 0 300.000000 249.000000" preserveAspectRatio="xMidYMid meet">
<metadata fill="#ffffff">
Created by potrace 1.10, written by Peter Selinger 2001-2011
</metadata>
<g transform="translate(0.000000,249.000000) scale(0.100000,-0.100000)" fill="#ffffff" stroke="none">
<path d="M1397 1974 c-4 -4 -7 -337 -7 -739 0 -790 -1 -772 49 -745 21 11 21 11 19 748 l-3 737 -25 3 c-14 2 -29 0 -33 -4z" fill="#ffffff"/>
<path d="M1540 1801 c-7 -14 -9 -204 -8 -577 3 -518 4 -558 21 -568 12 -8 22 -8 35 0 16 10 17 50 20 574 1 407 -1 567 -9 576 -17 20 -47 17 -59 -5z" fill="#ffffff"/>
<path d="M951 1766 c-8 -9 -10 -158 -9 -536 3 -485 4 -524 21 -534 12 -8 22 -8 35 0 16 10 17 49 20 534 2 541 2 550 -38 550 -10 0 -23 -6 -29 -14z" fill="#ffffff"/>
<path d="M1246 1735 c-3 -8 -6 -236 -6 -507 -2 -455 0 -493 15 -505 12 -8 24 -9 35 -3 16 8 18 52 24 505 6 380 5 500 -4 511 -16 18 -56 18 -64 -1z" fill="#ffffff"/>
<path d="M1837 1713 c-4 -3 -7 -219 -7 -479 0 -461 1 -474 20 -484 15 -8 24 -6 40 10 19 19 20 32 20 471 0 291 -4 457 -10 470 -10 18 -50 26 -63 12z" fill="#ffffff"/>
<path d="M816 1577 c-16 -11 -17 -44 -17 -341 0 -286 2 -331 16 -345 12 -12 19 -13 33 -5 15 10 17 41 20 347 2 320 1 337 -16 346 -14 7 -24 7 -36 -2z" fill="#ffffff"/>
<path d="M1101 1546 c-8 -9 -11 -101 -9 -316 3 -276 5 -304 21 -314 12 -8 22 -8 35 0 15 10 17 38 20 314 2 313 0 330 -38 330 -10 0 -23 -6 -29 -14z" fill="#ffffff"/>
<path d="M1691 1546 c-8 -9 -11 -101 -9 -316 3 -276 5 -304 21 -314 12 -8 22 -8 35 0 15 10 17 38 20 314 2 313 0 330 -38 330 -10 0 -23 -6 -29 -14z" fill="#ffffff"/>
<path d="M1985 1488 c-3 -7 -4 -126 -3 -263 l3 -250 30 0 30 0 0 260 0 260 -28 3 c-16 2 -29 -2 -32 -10z" fill="#ffffff"/>
<path d="M511 1436 c-8 -9 -11 -73 -9 -206 3 -171 5 -194 20 -204 13 -8 23 -8 35 0 16 10 18 33 21 198 1 117 -1 194 -8 206 -12 23 -42 26 -59 6z" fill="#ffffff"/>
<path d="M2287 1437 c-16 -11 -17 -32 -15 -206 3 -172 5 -195 21 -205 12 -8 22 -8 35 0 15 10 17 33 20 205 2 174 1 195 -15 206 -9 7 -20 13 -23 13 -3 0 -14 -6 -23 -13z" fill="#ffffff"/>
<path d="M2132 1388 c-8 -8 -12 -57 -12 -154 0 -152 5 -169 52 -162 23 3 23 5 26 152 3 153 -2 176 -37 176 -9 0 -22 -5 -29 -12z" fill="#ffffff"/>
<path d="M655 1358 c-3 -8 -4 -68 -3 -134 l3 -119 30 0 30 0 0 130 0 130 -28 3 c-16 2 -29 -2 -32 -10z" fill="#ffffff"/>
<path d="M2432 1328 c-7 -7 -12 -43 -12 -93 0 -83 9 -105 42 -105 27 0 38 32 38 109 0 50 -4 74 -16 85 -19 19 -36 20 -52 4z" fill="#ffffff"/>
<path d="M361 1296 c-18 -22 -10 -117 12 -130 31 -19 52 4 55 63 3 56 -9 81 -38 81 -10 0 -23 -6 -29 -14z" fill="#ffffff"/>
<path d="M2574 1287 c-3 -8 -4 -36 -2 -63 3 -47 4 -49 33 -49 30 0 30 0 30 60 0 58 -1 60 -28 63 -17 2 -29 -2 -33 -11z" fill="#ffffff"/>
</g>
</svg>