<?xml version="1.0" encoding="UTF-8"?>
<!DOCTYPE svg PUBLIC "-//W3C//DTD SVG 1.1//EN" "http://www.w3.org/Graphics/SVG/1.1/DTD/svg11.dtd">
<svg version="1.1" xmlns="http://www.w3.org/2000/svg" xmlns:xlink="http://www.w3.org/1999/xlink" x="0" y="0" width="160" height="40" viewBox="0, 0, 160, 40">
  <g id="Page-1">
    <path d="M7,0 L153,0 C156.866,0 160,3.134 160,7 L160,33 C160,36.866 156.866,40 153,40 L7,40 C3.134,40 0,36.866 0,33 L0,7 C0,3.134 3.134,0 7,0 z" fill="#000000" id="Rectangle"/>
    <path d="M43,14.896 L43,9.104 L43.91,9.104 L43.91,14.132 L46.668,14.132 L46.668,14.896 L43,14.896 z M48.009,9.999 C47.727,9.999 47.481,9.781 47.481,9.504 C47.481,9.226 47.727,9 48.009,9 C48.3,9 48.537,9.226 48.537,9.504 C48.537,9.781 48.3,9.999 48.009,9.999 z M47.608,14.896 L47.608,10.702 L48.427,10.702 L48.427,14.896 L47.608,14.896 z M49.304,14.349 L49.695,13.776 C49.996,14.088 50.578,14.375 51.17,14.375 C51.789,14.375 52.116,14.132 52.116,13.776 C52.116,13.359 51.616,13.22 51.051,13.098 C50.305,12.933 49.431,12.742 49.431,11.839 C49.431,11.171 50.032,10.598 51.106,10.598 C51.861,10.598 52.408,10.858 52.781,11.197 L52.417,11.744 C52.162,11.449 51.67,11.232 51.115,11.232 C50.56,11.232 50.214,11.44 50.214,11.779 C50.214,12.143 50.687,12.265 51.233,12.386 C51.998,12.551 52.908,12.751 52.908,13.715 C52.908,14.436 52.289,15 51.133,15 C50.396,15 49.75,14.783 49.304,14.349 z M55.114,15 C54.422,15 54.067,14.627 54.067,13.967 L54.067,11.388 L53.339,11.388 L53.339,10.702 L54.067,10.702 L54.067,9.556 L54.886,9.556 L54.886,10.702 L55.778,10.702 L55.778,11.388 L54.886,11.388 L54.886,13.793 C54.886,14.088 55.032,14.305 55.314,14.305 C55.505,14.305 55.678,14.227 55.76,14.14 L55.969,14.731 C55.796,14.887 55.541,15 55.114,15 z M56.372,12.795 C56.372,11.579 57.292,10.598 58.575,10.598 C59.895,10.598 60.714,11.579 60.714,12.864 L60.714,13.055 L57.237,13.055 C57.301,13.767 57.847,14.357 58.73,14.357 C59.194,14.357 59.704,14.184 60.031,13.863 L60.414,14.375 C59.977,14.783 59.358,15 58.648,15 C57.337,15 56.372,14.114 56.372,12.795 z M58.575,11.24 C57.692,11.24 57.273,11.918 57.228,12.491 L59.913,12.491 C59.895,11.935 59.503,11.24 58.575,11.24 z M64.667,14.896 L64.667,12.213 C64.667,11.518 64.294,11.292 63.729,11.292 C63.22,11.292 62.755,11.588 62.519,11.9 L62.519,14.896 L61.7,14.896 L61.7,10.702 L62.519,10.702 L62.519,11.292 C62.81,10.954 63.393,10.598 64.075,10.598 C65.004,10.598 65.486,11.067 65.486,11.952 L65.486,14.896 L64.667,14.896 z M70.998,15 C69.633,15 68.777,14.01 68.777,12.795 C68.777,11.588 69.633,10.598 70.998,10.598 C72.372,10.598 73.219,11.588 73.219,12.795 C73.219,14.01 72.372,15 70.998,15 z M70.998,14.305 C71.881,14.305 72.363,13.593 72.363,12.795 C72.363,12.004 71.881,11.292 70.998,11.292 C70.124,11.292 69.633,12.004 69.633,12.795 C69.633,13.593 70.124,14.305 70.998,14.305 z M77.181,14.896 L77.181,12.213 C77.181,11.518 76.808,11.292 76.243,11.292 C75.734,11.292 75.269,11.588 75.033,11.9 L75.033,14.896 L74.214,14.896 L74.214,10.702 L75.033,10.702 L75.033,11.292 C75.324,10.954 75.907,10.598 76.589,10.598 C77.518,10.598 78,11.067 78,11.952 L78,14.896 L77.181,14.896 z" fill="#FFFFFF" id="Listenon-Copy"/>
    <g>
      <path d="M33.186,14.176 C32.907,13.135 32.089,12.316 31.047,12.037 C29.161,11.531 21.594,11.531 21.594,11.531 C21.594,11.531 14.028,11.531 12.142,12.037 C11.1,12.316 10.282,13.135 10.003,14.176 C9.497,16.062 9.497,20 9.497,20 C9.497,20 9.497,23.938 10.003,25.824 C10.282,26.865 11.1,27.684 12.142,27.963 C14.028,28.469 21.594,28.469 21.594,28.469 C21.594,28.469 29.161,28.469 31.047,27.963 C32.089,27.684 32.907,26.865 33.186,25.824 C33.692,23.938 33.692,20 33.692,20 C33.692,20 33.69,16.062 33.186,14.176 z" fill="#FF0000"/>
      <path d="M19.173,23.629 L25.458,20 L19.173,16.371 L19.173,23.629 z" fill="#FFFFFF"/>
    </g>
    <path d="M47.172,31 L48.922,31 L48.922,26.383 L52.898,19.727 L50.953,19.727 L48.078,24.703 L48.023,24.703 L45.148,19.727 L43.203,19.727 L47.172,26.383 z" fill="#FFFFFF"/>
    <path d="M55.898,31.164 C58.25,31.164 59.797,29.539 59.797,26.891 L59.797,26.875 C59.797,24.242 58.234,22.625 55.891,22.625 C53.555,22.625 52,24.25 52,26.875 L52,26.891 C52,29.531 53.539,31.164 55.898,31.164 z M55.906,29.75 C54.586,29.75 53.727,28.711 53.727,26.891 L53.727,26.875 C53.727,25.078 54.594,24.039 55.891,24.039 C57.211,24.039 58.07,25.078 58.07,26.875 L58.07,26.891 C58.07,28.703 57.227,29.75 55.906,29.75 z" fill="#FFFFFF"/>
    <path d="M63.898,31.164 C65.148,31.164 65.984,30.594 66.414,29.766 L66.453,29.766 L66.453,31 L68.148,31 L68.148,22.781 L66.453,22.781 L66.453,27.578 C66.453,28.859 65.688,29.711 64.5,29.711 C63.328,29.711 62.75,29.023 62.75,27.781 L62.75,22.781 L61.062,22.781 L61.062,28.109 C61.062,30 62.094,31.164 63.898,31.164 z" fill="#FFFFFF"/>
    <path d="M71.344,31 L73.094,31 L73.094,21.234 L76.539,21.234 L76.539,19.727 L67.891,19.727 L67.891,21.234 L71.344,21.234 z" fill="#FFFFFF"/>
    <path d="M79.055,31.164 C80.305,31.164 81.141,30.594 81.57,29.766 L81.609,29.766 L81.609,31 L83.305,31 L83.305,22.781 L81.609,22.781 L81.609,27.578 C81.609,28.859 80.844,29.711 79.656,29.711 C78.484,29.711 77.906,29.023 77.906,27.781 L77.906,22.781 L76.219,22.781 L76.219,28.109 C76.219,30 77.25,31.164 79.055,31.164 z" fill="#FFFFFF"/>
    <path d="M89.336,31.164 C91.422,31.164 92.773,29.508 92.773,26.891 L92.773,26.883 C92.773,24.266 91.414,22.625 89.352,22.625 C88.188,22.625 87.25,23.211 86.758,24.18 L86.719,24.18 L86.719,19.727 L85.031,19.727 L85.031,31 L86.719,31 L86.719,29.609 L86.758,29.609 C87.242,30.57 88.156,31.164 89.336,31.164 z M88.891,29.711 C87.609,29.711 86.711,28.602 86.711,26.891 L86.711,26.883 C86.711,25.18 87.617,24.07 88.891,24.07 C90.219,24.07 91.047,25.148 91.047,26.883 L91.047,26.891 C91.047,28.641 90.219,29.711 88.891,29.711 z" fill="#FFFFFF"/>
    <path d="M97.586,31.164 C99.578,31.164 100.844,29.977 101.109,28.672 L101.125,28.586 L99.523,28.586 L99.5,28.648 C99.289,29.266 98.625,29.781 97.625,29.781 C96.281,29.781 95.43,28.875 95.398,27.32 L101.219,27.32 L101.219,26.75 C101.219,24.281 99.805,22.625 97.5,22.625 C95.195,22.625 93.711,24.344 93.711,26.914 L93.711,26.922 C93.711,29.516 95.172,31.164 97.586,31.164 z M97.508,24.008 C98.609,24.008 99.406,24.703 99.547,26.125 L95.422,26.125 C95.57,24.75 96.414,24.008 97.508,24.008 z" fill="#FFFFFF"/>
  </g>
</svg>
